<svg width="53" height="48" viewBox="0 0 53 48" fill="none" xmlns="http://www.w3.org/2000/svg">
<rect width="53" height="48" rx="21.9034" fill="#026E78"/>
<path fill-rule="evenodd" clip-rule="evenodd" d="M12 19.6525C12 16.5307 15.1909 14 19.1271 14H33.8729C37.8091 14 41 16.5307 41 19.6525V31.3475C41 34.4693 37.8091 37 33.8729 37H19.1271C15.1909 37 12 34.4693 12 31.3475V19.6525ZM19.1271 15.9492C16.5482 15.9492 14.4576 17.6072 14.4576 19.6525V31.3475C14.4576 33.3928 16.5482 35.0508 19.1271 35.0508H33.8729C36.4518 35.0508 38.5424 33.3928 38.5424 31.3475V19.6525C38.5424 17.6072 36.4518 15.9492 33.8729 15.9492H19.1271Z" fill="#34C759"/>
<path fill-rule="evenodd" clip-rule="evenodd" d="M21.585 23.5508C21.585 22.3667 22.7953 21.4067 24.2884 21.4067H39.2799C39.9585 21.4067 40.5087 21.8431 40.5087 22.3813C40.5087 22.9196 39.9585 23.3559 39.2799 23.3559H24.2884C24.1526 23.3559 24.0426 23.4432 24.0426 23.5508V27.644C24.0426 27.7517 24.1526 27.8389 24.2884 27.8389H28.9578C30.7223 27.8389 32.1528 28.9734 32.1528 30.3728V35.2457C32.1528 35.784 31.6026 36.2203 30.9239 36.2203C30.2453 36.2203 29.6951 35.784 29.6951 35.2457V30.3728C29.6951 30.0499 29.365 29.7881 28.9578 29.7881H24.2884C22.7953 29.7881 21.585 28.8282 21.585 27.644V23.5508Z" fill="#34C759"/>
</svg>
