<svg width="52" height="46" viewBox="0 0 52 46" fill="none" xmlns="http://www.w3.org/2000/svg">
<rect width="52" height="46" rx="21.9034" fill="#026E78"/>
<path fill-rule="evenodd" clip-rule="evenodd" d="M14 29.7099C14 26.6558 16.3973 24.1799 19.3545 24.1799H24.5056C27.4628 24.1799 29.8601 26.6558 29.8601 29.7099C29.8601 31.527 28.4339 32.9999 26.6745 32.9999H17.1856C15.4262 32.9999 14 31.527 14 29.7099ZM19.3545 26.2799C17.5203 26.2799 16.0333 27.8156 16.0333 29.7099C16.0333 30.3672 16.5492 30.8999 17.1856 30.8999H26.6745C27.3109 30.8999 27.8268 30.3672 27.8268 29.7099C27.8268 27.8156 26.3398 26.2799 24.5056 26.2799H19.3545Z" fill="#34C759"/>
<path fill-rule="evenodd" clip-rule="evenodd" d="M31.4863 26.9101C31.4863 26.3302 31.9415 25.8601 32.503 25.8601H34.5363C36.8946 25.8601 38.8064 27.8345 38.8064 30.2701C38.8064 31.7778 37.6229 33.0001 36.163 33.0001H32.503C31.9415 33.0001 31.4863 32.53 31.4863 31.9501C31.4863 31.3702 31.9415 30.9001 32.503 30.9001H36.163C36.4999 30.9001 36.773 30.618 36.773 30.2701C36.773 28.9943 35.7716 27.9601 34.5363 27.9601H32.503C31.9415 27.9601 31.4863 27.49 31.4863 26.9101Z" fill="#34C759"/>
<path fill-rule="evenodd" clip-rule="evenodd" d="M21.93 14.1C20.2456 14.1 18.88 15.5103 18.88 17.25C18.88 18.9897 20.2456 20.4 21.93 20.4C23.6145 20.4 24.9801 18.9897 24.9801 17.25C24.9801 15.5103 23.6145 14.1 21.93 14.1ZM16.8467 17.25C16.8467 14.3505 19.1226 12 21.93 12C24.7375 12 27.0134 14.3505 27.0134 17.25C27.0134 20.1495 24.7375 22.5 21.93 22.5C19.1226 22.5 16.8467 20.1495 16.8467 17.25Z" fill="#34C759"/>
<path fill-rule="evenodd" clip-rule="evenodd" d="M32.0963 18.7199C31.3102 18.7199 30.673 19.378 30.673 20.1899C30.673 21.0017 31.3102 21.6599 32.0963 21.6599C32.8824 21.6599 33.5197 21.0017 33.5197 20.1899C33.5197 19.378 32.8824 18.7199 32.0963 18.7199ZM28.6396 20.1899C28.6396 18.2182 30.1873 16.6199 32.0963 16.6199C34.0054 16.6199 35.553 18.2182 35.553 20.1899C35.553 22.1615 34.0054 23.7599 32.0963 23.7599C30.1873 23.7599 28.6396 22.1615 28.6396 20.1899Z" fill="#34C759"/>
</svg>
